*******************************************************************************
 The Hike.2011.DVDSCR.Xvid.AC3- SiNiSTER
*******************************************************************************
-------------------------------------------------------------------------------
 General Information
------------------------------------------------------------------------------- 
http://www.pix2links.com/image/uDdG.jpg
Format : AVI
Format/Info : Audio Video Interleave
File size : 1.13 GiB
Duration : 1h 23mn
Overall bit rate : 1 954 Kbps
Video
ID : 0
Format : MPEG-4 Visual
Format profile : Advanced Simple@L5
Format settings, BVOP : Yes
Format settings, QPel : Yes
Format settings, GMC : 3 warppoints
Format settings, Matrix : Default (H.263)
Muxing mode : Packed bitstream
Codec ID : XVID
Codec ID/Hint : XviD
Duration : 1h 23mn
Bit rate : 1 510 Kbps
Width : 720 pixels
Height : 304 pixels
Display aspect ratio : 2.35:1
Frame rate : 25.000 fps
Color space : YUV
Chroma subsampling : 4:2:0
Bit depth : 8 bits
Scan type : Progressive
Bits/(Pixel*Frame) : 0.276
Stream size : 897 MiB (77%)
Writing library : XviD 64
Audio
ID : 1
Format : AC-3
Format/Info : Audio Coding 3
Mode extension : CM (complete main)
Codec ID : 2000
Duration : 1h 20mn
Bit rate mode : Constant
Bit rate : 448 Kbps
Channel(s) : 6 channels
Channel positions : Front: L C R, Side: L R, LFE
Sampling rate : 48.0 KHz
Bit depth : 16 bits
Stream size : 259 MiB (22%)
Alignment : Aligned on interleaves
Interleave, duration : 66 ms (1.64 video frames)
Interleave, preload duration : 192 ms
Video Source: The Hike 2011 DVDRiP XViD-P2P.....thanks 
Audio Source: The Hike 2011 DVDRiP XViD-P2P.....thanks
Greets:
DarkScene,HDScene,Noir,CrEwSaDe,blackjesus,ViSiON,HDLiTE,UnKnOwN,IMAGiNE,
FLAWL3SS,Rx,ELEKTRI4KA,CiNEDUB,BDK,SAFCuk009,HiVE-CM8..... and everybody else we 
respect.. u know who u are
-------------------------------------------------------------------------------
 Post Information
-------------------------------------------------------------------------------
Encoded by...........: SiNiSTER
 
Have sumthing to offer..looking for suppliers... cammers,cams,screeners, audio
supplier.. and any pre retail DVD/BR any RC...if u can provide any email us at
sinister@hushmail.me
-------------------------------------------------------------------------------
 Release Notes
-------------------------------------------------------------------------------
source had issues.. needed deblocked bad. denoised, degrained, adjusted RGB, hue,
saturation, and levels then sharpened.. demuxed audio to .WAV then converted to higher 
bitrate AC3 and mae it 5.1......enjoy
-------------------------------------------------------------------------------
 ScreenShots
------------------------------------------------------------------------------- 
http://www.pix2links.com/image/Q2zDL.png 
http://www.pix2links.com/image/npZ0s.png 
http://www.pix2links.com/image/ezAEF.png 
http://www.pix2links.com/image/EQn41.png 
http://www.pix2links.com/image/5IPav.jpg
-------------------------------------------------------------------------------
[img]http://leetleech.org/images/33506450373550172140.gif[/img]
-------------------------------------------------------------------------------
Generated with Cool NFO Creator - http://fly.to/coolbeans
------------------------------------------------------------------------------- 
http://www.pix2links.com/images/33502453931372952618.gif